<svg width="428" height="431" viewBox="0 0 428 431" fill="none" xmlns="http://www.w3.org/2000/svg">
<path d="M167.62 5.67334C167.62 5.67334 174.867 75.7743 183.728 76.574C192.596 77.3791 184.534 29.0385 167.62 5.67334Z" fill="#BE9A60"/>
<mask id="mask0_27_147" style="mask-type:luminance" maskUnits="userSpaceOnUse" x="208" y="0" width="15" height="75">
<path d="M208.331 0.000976562H222.352V74.2371H208.331V0.000976562Z" fill="white"/>
</mask>
<g mask="url(#mask0_27_147)">
<path d="M215.139 0.0927734C215.139 0.0927734 204.125 69.6953 212.483 72.7515C220.835 75.8077 225.485 27.0235 215.139 0.0927734Z" fill="#BE9A60"/>
</g>
<path d="M251.797 5.31885C251.797 5.31885 227.682 71.5366 235.306 76.1428C242.919 80.7326 256.798 33.7393 251.797 5.31885Z" fill="#BE9A60"/>
<path d="M325.94 33.7168C325.94 33.7168 283.887 90.2675 289.874 96.8509C295.855 103.434 322.599 62.3673 325.94 33.7168Z" fill="#BE9A60"/>
<path d="M363.436 67.9048C363.436 67.9048 308.238 111.71 312.319 119.614C316.405 127.523 352.838 94.7369 363.436 67.9048Z" fill="#BE9A60"/>
<path d="M389.721 97.5469C389.721 97.5469 326.504 128.717 328.832 137.305C331.154 145.898 373.695 121.542 389.721 97.5469Z" fill="#BE9A60"/>
<path d="M409.904 131.356C409.904 131.356 340.893 145.673 340.986 154.573C341.084 163.468 388.362 150.559 409.904 131.356Z" fill="#BE9A60"/>
<path d="M421.625 170.206C421.625 170.206 351.151 170.824 349.508 179.566C347.882 188.313 396.77 184.851 421.625 170.206Z" fill="#BE9A60"/>
<path d="M288.68 17.7012C288.68 17.7012 256.885 80.5889 263.907 86.055C270.918 91.5156 290.274 46.4941 288.68 17.7012Z" fill="#BE9A60"/>
<path d="M131.964 19.7783C131.964 19.7783 151.309 85.0376 161.573 84.4351C171.843 83.8217 144.649 36.6915 131.964 19.7783Z" fill="#BE9A60"/>
<path d="M92.6832 36.4883C92.6832 36.4883 124.116 97.1085 131.965 94.6931C139.813 92.2832 112.017 55.0282 92.6832 36.4883Z" fill="#BE9A60"/>
<path d="M62.4114 60.127C62.4114 60.127 105.691 112.948 112.877 108.96C120.068 104.968 85.1522 74.2633 62.4114 60.127Z" fill="#BE9A60"/>
<path d="M32.5613 94.3594C32.5613 94.3594 85.3328 137.694 91.6095 132.387C97.8643 127.063 57.6298 103.78 32.5613 94.3594Z" fill="#BE9A60"/>
<path d="M18.2933 134.818C18.2933 134.818 79.286 165.533 84.2317 158.972C89.1885 152.399 44.8242 138.498 18.2933 134.818Z" fill="#BE9A60"/>
<mask id="mask1_27_147" style="mask-type:luminance" maskUnits="userSpaceOnUse" x="356" y="208" width="72" height="13">
<path d="M356.957 208.84H428V220.057H356.957V208.84Z" fill="white"/>
</mask>
<g mask="url(#mask1_27_147)">
<path d="M428 217.045C428 217.045 360.9 204.349 357.948 212.017C354.996 219.691 401.474 220.824 428 217.045Z" fill="#BE9A60"/>
</g>
<path d="M5.93738 175.978C5.93738 175.978 71.2021 196.079 74.9813 188.783C78.7714 181.477 32.7148 175.178 5.93738 175.978Z" fill="#BE9A60"/>
<mask id="mask2_27_147" style="mask-type:luminance" maskUnits="userSpaceOnUse" x="0" y="207" width="71" height="11">
<path d="M0 207.439H70.9225V217.254H0V207.439Z" fill="white"/>
</mask>
<g mask="url(#mask2_27_147)">
<path d="M0 212.904C0 212.904 67.828 220.857 70.2215 212.987C72.6314 205.127 26.1859 207.274 0 212.904Z" fill="#BE9A60"/>
</g>
<path d="M167.62 424.429C167.62 424.429 174.867 354.333 183.728 353.528C192.596 352.729 184.534 401.064 167.62 424.429Z" fill="#BE9A60"/>
<mask id="mask3_27_147" style="mask-type:luminance" maskUnits="userSpaceOnUse" x="208" y="356" width="15" height="75">
<path d="M208.331 356.066H222.352V430.105H208.331V356.066Z" fill="white"/>
</mask>
<g mask="url(#mask3_27_147)">
<path d="M215.139 430.016C215.139 430.016 204.125 360.408 212.483 357.352C220.835 354.296 225.485 403.085 215.139 430.016Z" fill="#BE9A60"/>
</g>
<path d="M251.797 424.784C251.797 424.784 227.682 358.566 235.306 353.966C242.93 349.365 256.798 396.369 251.797 424.784Z" fill="#BE9A60"/>
<path d="M325.94 396.392C325.94 396.392 283.887 339.841 289.874 333.252C295.855 326.669 322.599 367.736 325.94 396.392Z" fill="#BE9A60"/>
<path d="M363.436 362.204C363.436 362.204 308.238 318.398 312.319 310.489C316.405 302.58 352.838 335.366 363.436 362.204Z" fill="#BE9A60"/>
<path d="M389.721 332.557C389.721 332.557 326.504 301.392 328.832 292.799C331.154 284.211 373.695 308.567 389.721 332.557Z" fill="#BE9A60"/>
<path d="M409.904 298.746C409.904 298.746 340.893 284.434 340.986 275.534C341.084 266.634 388.362 279.549 409.904 298.746Z" fill="#BE9A60"/>
<path d="M421.625 259.897C421.625 259.897 351.151 259.284 349.508 250.537C347.882 241.795 396.77 245.252 421.625 259.897Z" fill="#BE9A60"/>
<path d="M288.68 412.407C288.68 412.407 256.885 349.519 263.907 344.053C270.918 338.587 290.274 383.609 288.68 412.407Z" fill="#BE9A60"/>
<path d="M131.964 410.331C131.964 410.331 151.309 345.066 161.573 345.669C171.843 346.271 144.649 393.418 131.964 410.331Z" fill="#BE9A60"/>
<path d="M92.6832 393.62C92.6832 393.62 124.116 332.994 131.965 335.415C139.813 337.82 112.017 375.08 92.6832 393.62Z" fill="#BE9A60"/>
<path d="M62.4114 369.981C62.4114 369.981 105.691 317.154 112.877 321.147C120.068 325.134 85.1522 355.844 62.4114 369.981Z" fill="#BE9A60"/>
<path d="M32.5613 335.744C32.5613 335.744 85.3328 292.41 91.6095 297.722C97.8643 303.041 57.6298 326.329 32.5613 335.744Z" fill="#BE9A60"/>
<path d="M18.2933 295.29C18.2933 295.29 79.286 264.569 84.2317 271.131C89.1885 277.703 44.8242 291.609 18.2933 295.29Z" fill="#BE9A60"/>
<path d="M5.93738 254.126C5.93738 254.126 71.2021 234.03 74.9813 241.326C78.755 248.616 32.7148 254.931 5.93738 254.126Z" fill="#BE9A60"/>
<path d="M211.787 131.313C164.75 131.313 126.619 169.428 126.619 216.47C126.619 263.507 164.739 301.628 211.787 301.628C258.83 301.628 296.95 263.507 296.95 216.47C296.95 169.428 258.83 131.313 211.787 131.313ZM211.787 277.693C177.961 277.693 150.543 250.269 150.543 216.459C150.543 182.65 177.972 155.22 211.787 155.22C245.597 155.22 273.027 182.65 273.027 216.459C273.027 250.269 245.597 277.693 211.787 277.693Z" fill="#2C328A"/>
<path d="M254.131 216.459C254.131 217.779 254.07 219.104 253.939 220.419C253.808 221.739 253.616 223.048 253.358 224.346C253.096 225.644 252.778 226.926 252.395 228.196C252.006 229.462 251.562 230.705 251.053 231.932C250.549 233.153 249.985 234.347 249.36 235.514C248.736 236.686 248.057 237.82 247.317 238.921C246.583 240.021 245.795 241.084 244.957 242.108C244.113 243.132 243.226 244.107 242.289 245.044C241.353 245.98 240.372 246.873 239.348 247.711C238.324 248.549 237.261 249.338 236.16 250.072C235.06 250.811 233.926 251.49 232.759 252.115C231.593 252.739 230.393 253.303 229.172 253.813C227.95 254.317 226.702 254.766 225.436 255.149C224.166 255.532 222.884 255.856 221.586 256.113C220.288 256.37 218.979 256.562 217.659 256.694C216.344 256.825 215.019 256.891 213.699 256.891C212.374 256.891 211.054 256.825 209.734 256.694C208.414 256.562 207.105 256.37 205.807 256.113C204.509 255.856 203.227 255.532 201.962 255.149C200.691 254.766 199.448 254.317 198.221 253.813C196.999 253.303 195.805 252.739 194.633 252.115C193.467 251.49 192.333 250.811 191.232 250.072C190.131 249.338 189.069 248.549 188.044 247.711C187.02 246.873 186.04 245.98 185.103 245.044C184.167 244.107 183.279 243.132 182.441 242.108C181.598 241.084 180.809 240.021 180.075 238.921C179.341 237.82 178.662 236.686 178.038 235.514C177.413 234.347 176.844 233.153 176.34 231.932C175.831 230.705 175.387 229.462 175.004 228.196C174.62 226.926 174.297 225.644 174.04 224.346C173.782 223.048 173.585 221.739 173.454 220.419C173.328 219.104 173.262 217.779 173.262 216.459C173.262 215.134 173.328 213.814 173.454 212.494C173.585 211.174 173.782 209.87 174.04 208.572C174.297 207.269 174.62 205.987 175.004 204.722C175.387 203.451 175.831 202.208 176.34 200.986C176.844 199.759 177.413 198.565 178.038 197.399C178.662 196.232 179.341 195.098 180.075 193.992C180.809 192.891 181.598 191.834 182.441 190.81C183.279 189.786 184.167 188.805 185.103 187.869C186.04 186.932 187.02 186.045 188.044 185.201C189.069 184.363 190.131 183.575 191.232 182.841C192.333 182.101 193.467 181.422 194.633 180.798C195.805 180.173 196.999 179.609 198.221 179.105C199.448 178.596 200.691 178.152 201.962 177.769C203.227 177.38 204.509 177.063 205.807 176.805C207.105 176.542 208.414 176.35 209.734 176.219C211.054 176.093 212.374 176.027 213.699 176.027C215.019 176.027 216.344 176.093 217.659 176.219C218.979 176.35 220.288 176.542 221.586 176.805C222.884 177.063 224.166 177.38 225.436 177.769C226.702 178.152 227.95 178.596 229.172 179.105C230.393 179.609 231.593 180.173 232.759 180.798C233.926 181.422 235.06 182.101 236.16 182.841C237.261 183.575 238.324 184.363 239.348 185.201C240.372 186.045 241.353 186.932 242.289 187.869C243.226 188.805 244.113 189.786 244.957 190.81C245.795 191.834 246.583 192.891 247.317 193.992C248.057 195.098 248.736 196.232 249.36 197.399C249.985 198.565 250.549 199.759 251.053 200.986C251.562 202.208 252.006 203.451 252.395 204.722C252.778 205.987 253.096 207.269 253.358 208.572C253.616 209.87 253.808 211.174 253.939 212.494C254.07 213.814 254.131 215.134 254.131 216.459Z" fill="#447FE0"/>
<path d="M227.611 202.536C228.525 203.451 229.341 204.448 230.059 205.521C230.776 206.595 231.384 207.729 231.877 208.923C232.37 210.117 232.748 211.349 233 212.62C233.252 213.885 233.378 215.166 233.378 216.459C233.378 217.752 233.252 219.028 233 220.298C232.748 221.564 232.37 222.796 231.877 223.99C231.384 225.184 230.776 226.318 230.059 227.397C229.341 228.47 228.525 229.462 227.611 230.376C226.696 231.291 225.705 232.107 224.626 232.824C223.552 233.542 222.418 234.15 221.224 234.643C220.03 235.141 218.798 235.514 217.533 235.766C216.262 236.018 214.98 236.144 213.688 236.144C212.395 236.144 211.119 236.018 209.848 235.766C208.583 235.514 207.351 235.141 206.157 234.643C204.963 234.15 203.829 233.542 202.75 232.824C201.677 232.107 200.685 231.291 199.771 230.376C198.856 229.462 198.04 228.47 197.322 227.397C196.605 226.318 195.997 225.184 195.499 223.99C195.006 222.796 194.633 221.569 194.381 220.298C194.129 219.033 194.003 217.752 194.003 216.459C194.003 215.166 194.129 213.885 194.381 212.62C194.633 211.349 195.006 210.122 195.499 208.928C195.997 207.734 196.599 206.595 197.322 205.521C198.04 204.448 198.856 203.451 199.771 202.542C200.68 201.627 201.677 200.811 202.75 200.094C203.829 199.371 204.963 198.768 206.157 198.27C207.351 197.777 208.578 197.404 209.848 197.152C211.114 196.9 212.395 196.774 213.688 196.774C214.98 196.774 216.262 196.9 217.527 197.152C218.798 197.404 220.03 197.777 221.224 198.27C222.418 198.768 223.552 199.371 224.626 200.094C225.699 200.811 226.696 201.627 227.611 202.536Z" fill="#220000"/>
<path d="M211.787 342.875C194.743 342.875 178.207 339.534 162.636 332.945C147.602 326.586 134.101 317.489 122.511 305.899C110.922 294.31 101.819 280.809 95.46 265.774C88.871 250.208 85.53 233.673 85.53 216.634C85.53 199.595 88.871 183.06 95.46 167.494C101.819 152.459 110.922 138.958 122.511 127.369C134.101 115.779 147.602 106.682 162.636 100.323C178.207 93.7341 194.743 90.3931 211.787 90.3931C228.827 90.3931 245.362 93.7341 260.933 100.323C275.968 106.682 289.469 115.779 301.058 127.369C312.653 138.958 321.75 152.459 328.109 167.494C334.698 183.06 338.039 199.595 338.039 216.634C338.039 233.673 334.698 250.208 328.109 265.774C321.75 280.809 312.653 294.31 301.058 305.899C289.469 317.489 275.968 326.586 260.933 332.945C245.362 339.545 228.827 342.875 211.787 342.875ZM211.787 104.688C181.877 104.688 153.752 116.332 132.6 137.485C111.453 158.632 99.8033 186.74 99.8033 216.656C99.8033 246.572 111.453 274.685 132.6 295.832C153.752 316.979 181.866 328.629 211.787 328.629C241.703 328.629 269.817 316.979 290.969 295.832C312.122 274.685 323.766 246.572 323.766 216.656C323.766 186.74 312.122 158.632 290.969 137.485C269.817 116.332 241.692 104.688 211.787 104.688Z" fill="#BE9A60"/>
</svg>
